Patient4_TMGait_0pt5_01_left_27_EMG.mot
version=1
nRows=36
nColumns=33
inDegrees=no
endheader
time	1LAddLong	2LGlutMax	3LGlutMed	4LIliopsoas	5LSemiMemb	6LBicFemLong	7LRecFem	8LVastMed	9LVastLat	10LGasMed	11LTibAnt	12lTibPost	13LPeroneusLong	14LSol	15LExtDigLong	16LFlexDigLong	17RAddLong	18RGlutMax	19RGlutMed	20RIliopsoas	21RSemiMemb	22RBicFemLong	23RRecFem	24RVastMed	25RVastLat	26RGasMed	27RTibAnt	28RTibPost	29RPeroneusLong	30RSol	31RExtDigLong	32RFlexDigLong
36.04	0.004272	0.22369	-0.089111	0.005341	0.001373	0.021057	0.15457	0.006714	-0.23804	-0.075684	-0.16312	0.008087	0.065002	0.052795	-0.19043	-0.011902	-0.043793	0.046387	0.096588	-0.068359	-0.072327	0.074768	-0.11002	0.11704	0.034485	-0.001678	0.30395	-0.000458	-0.05722	-0.26535	-0.002441	-0.010223
36.041	0.008392	0.19058	-0.093689	-0.008392	0.00061	0.011444	0.15366	0.005188	-0.21027	-0.050964	-0.11856	0.005798	0.12726	0.002747	-0.14175	-0.023193	-0.024109	0.063629	0.13626	-0.077972	0.24872	-0.11887	-0.039673	0.15106	-0.012207	0.004425	0.46448	0	-0.20248	-0.22079	-0.002594	-0.002747
36.042	0.006714	0.19318	-0.092163	-0.002136	-0.001373	-0.011292	0.15381	0.015564	-0.19592	0.013885	-0.11414	0.000153	0.071716	-0.002747	-0.10849	-0.004883	0.006714	0.020905	0.58411	-0.011139	0.10849	-0.18402	-0.042725	0.10803	0.020599	0.008087	0.1265	0.001984	-0.093384	-0.095673	0.001831	-0.002136
36.043	0.006714	0.16419	-0.094147	0.009155	0.001526	-0.005951	0.14252	0.010681	-0.19119	-0.002441	-0.042572	-0.002136	0.062103	-0.000153	-0.14862	-0.004578	0.015869	-0.017242	0.27817	0.035095	-0.027161	-0.010529	-0.020905	0.16693	0.088654	0.004578	-0.016327	0.002747	0.76935	0.04776	0.009766	-0.002594
36.044	0.000305	0.15625	-0.087433	-0.002594	0.001831	-0.005035	0.17075	0.006256	-0.18005	-0.00351	0.021515	0.007324	0.10407	-0.026093	-0.23102	-0.009613	0.004272	-0.069122	-0.73517	0.10742	-0.14069	-0.019226	0.033875	0.21011	0.10895	-0.006256	-0.41184	0.00412	1.1349	0.022278	-0.00061	-0.003662
36.045	0.009613	0.14999	-0.099487	0.008545	0.006256	-0.001984	0.16235	0.008545	-0.17425	0.036316	0.04837	0.001984	0.089874	-0.062714	-0.20142	-0.00885	0.042725	-0.14069	-0.79193	0.074158	-0.15045	-0.21988	0.020752	0.10117	0.089111	-0.012817	-0.55939	0.005035	0.7225	0.032043	-0.001373	-0.010376
36.046	0.010223	0.14755	-0.092468	-0.011749	0.00061	0.005951	0.15015	0.010071	-0.16327	0.064392	0.061646	0.000916	0.077362	-0.084229	-0.10635	-0.006714	0.054321	-0.12405	-0.21866	-0.009613	-0.023346	-0.32623	0.042725	0.081787	0.055695	-0.011902	-0.15198	0.00351	0.11292	0.018768	-0.002441	-0.00061
36.047	0.011292	0.099182	-0.093079	-0.00473	0.000305	-0.005493	0.14954	0.006409	-0.10407	0.064697	0.050964	-0.005646	0.062561	-0.10803	-0.018311	-0.000916	0.077667	-0.19623	0.68451	-0.020752	0.14725	-0.26535	0.054626	0.059052	0.052338	-0.000153	-0.079651	0.002136	-0.25848	0.006104	-0.001831	-0.000763
36.048	0.005798	0.11398	-0.11261	-0.003052	0.001068	-0.000153	0.15869	0.006409	-0.067139	0.067902	0.043335	-0.002441	0.074463	-0.1387	0.034332	-0.001373	0.09964	-0.30792	0.070953	0.052032	0.025787	-0.18921	0.074615	0.032501	0.048828	-0.014648	-0.036163	-0.007324	-0.3331	0.052643	-0.003204	-0.00473
36.049	0.009155	0.071106	-0.097046	0.000763	-0.000458	0.011139	0.15717	0.007172	-0.034485	0.014648	0.039368	0.001984	0.079041	-0.094452	0.10071	-0.00351	0.029449	-0.24582	-0.20859	0.083618	-0.10254	-0.11993	0.10208	0.076447	0.063629	-0.006561	-0.011749	-0.007935	-0.3688	0.17685	0.000305	-0.009766
36.05	0.015259	0.066681	-0.094757	-0.004883	-0.006409	0.01358	0.15579	0.003967	-0.02121	0.006256	0.047455	0.007172	0.080414	-0.041962	0.063324	-0.009766	-0.046997	-0.26093	-0.25497	0.042114	-0.22507	-0.16663	0.14206	0.081787	0.020447	-0.019379	-0.03891	-0.010834	-0.1828	0.25146	-0.004425	-0.011292
36.051	0.015411	0.081787	-0.093842	0	-0.003204	0.007782	0.15396	0.005341	0.010986	0.011749	0.001221	0.002747	0.063019	-0.011444	0.054016	-0.007172	-0.090027	-0.25528	-0.35507	0.014191	-0.11292	-0.20325	0.20233	0.10986	-0.052948	-0.057373	-0.062714	-0.011597	-0.20264	0.25406	-0.008698	-0.01297
36.052	0.006104	0.09552	-0.083618	-0.005798	-0.006256	-0.010223	0.13992	0.003967	0.035706	0.022736	-0.009003	-0.003052	0.059357	-0.004578	0.079193	0.005646	-0.11597	-0.18021	-0.16281	-0.030518	-0.013428	0.072021	0.24139	0.17364	-0.094452	-0.1535	0.029449	-0.00946	-0.23773	0.2565	-0.002899	-0.004883
36.053	0.011749	0.06424	-0.090485	-0.014038	0.006714	-0.01236	0.11963	0.002747	0.041504	0.017548	-0.014343	0.017242	0.021515	0.007477	0.103	-0.002594	-0.061493	-0.17258	-0.054474	-0.031586	0.22507	0.22293	0.21591	0.068207	-0.14084	-0.12878	0.16449	-0.002289	-0.79697	0.29999	-0.003967	-0.001984
36.054	0.011597	0.06424	-0.08728	-0.010376	0.005951	0.003815	0.12314	0.005341	0.077209	0.013885	-0.002594	0.00351	0.035858	0.052795	0.12131	-0.017548	-0.03006	-0.18219	0.015717	-0.089264	0.23254	0.20905	0.21057	-0.012054	-0.1181	-0.013733	0.12528	0.010223	-0.1622	0.41794	-0.002289	-0.010986
36.055	0.014343	0.072021	-0.08667	0.007935	0.004578	-0.013123	0.11612	0.005035	0.10391	-0.004883	-0.008545	0.007172	0.049133	0.036316	0.005035	-0.019226	0.005646	-0.15945	0.035706	-0.083923	0.21408	0.1294	0.093231	-0.019073	-0.027008	0.002289	0.10437	0.009918	0.34851	0.92514	-0.00351	-0.011749
36.056	0.009918	0.073853	-0.08728	0.015869	0.010376	-0.015717	0.11231	0.005035	0.13275	-0.000458	-0.097046	0.001984	0.051575	0.018921	0.34393	-0.013275	0.052795	-0.15289	0.10101	-0.027618	0.22034	-0.088043	0.075989	-0.11765	-0.015564	0.010681	0.11902	0.006866	-0.062408	0.95337	0.001526	-0.013275
36.057	0.007172	0.052643	-0.079956	0.025482	0.013123	-0.010223	0.11597	0.005798	0.14511	-0.002899	-0.052032	0.016174	0.066986	0.020905	-0.22537	-0.005798	0.064392	-0.11673	-0.10239	-0.010834	0.13336	-0.023804	0.16602	-0.17059	-0.035553	-0.037079	0.12741	0.004883	-0.13992	0.37109	-0.000763	-0.01709
36.058	0.009918	0.057526	-0.077972	0.030975	0.001984	0.020752	0.1149	0.007935	0.168	-0.012817	-0.010376	0.004578	0.058594	0.0354	-0.097961	-0.000763	0.034332	-0.036163	-0.16693	-0.029602	-0.28137	0.057678	-0.02594	-0.14633	-0.07309	0.039825	0.067444	-0.003052	-0.068054	-0.042725	-0.003204	-0.012512
36.059	0.007782	0.080872	-0.089569	0.017853	0.006104	0.023956	0.10635	0.00351	0.17777	-0.050659	0.004578	-0.001373	0.10956	0.001373	-0.083618	-0.00946	-0.003967	0.004425	0.09964	-0.01358	-0.47501	0.088654	-0.070496	-0.1091	0.003052	0.040894	0.1091	-0.006866	-0.014496	-0.38711	-0.001526	-0.010223
36.06	0.005798	0.070343	-0.097656	0.001984	0.004272	0.006714	0.098877	0.005188	0.1918	-0.034332	0.054626	0.000458	0.13062	-0.1712	-0.057678	-0.002441	-0.015869	-0.00351	-0.2652	0.05661	-0.30014	-0.010681	0.080872	-0.06134	0.095062	0.005035	0.14679	-0.008087	-0.025787	-0.83328	0.001831	-0.002441
36.061	0.007019	0.045776	-0.093994	-0.003815	0.003052	0.032043	0.098419	0.008698	0.2005	-0.02243	0.11032	-0.002289	0.077362	-0.33829	0.075989	-0.009918	-0.025787	-0.020447	-0.089569	0.049896	0.11063	-0.030823	0.13733	0.046997	0.078735	-0.013123	0.2092	-0.012207	-0.065613	-0.81009	-0.003662	-0.012817
36.062	0.012817	0.042725	-0.095978	-0.000153	-0.004578	0.028381	0.076752	0.004425	0.20157	-0.012207	0.13977	0.00412	0.002594	-0.27496	0.11932	-0.013733	-0.0383	0.02182	0.70633	0.027161	0.50995	-0.065613	0.073853	0.14069	0.049744	-0.001221	0.2533	-0.022736	-0.027618	-0.15671	-0.00351	0.002136
36.063	0.012054	0.056458	-0.092163	0.013733	-0.007019	0.024872	0.071259	0.008392	0.22781	-0.016022	0.12573	0.004272	0.007477	-0.15839	0.079193	-0.005646	-0.031128	0.020294	0.53955	0.029755	0.18417	0.006104	-0.078125	0.047455	0.040436	-0.021667	0.28763	-0.043488	0.001831	0.53024	-0.004883	0.002441
36.064	0.010223	0.04303	-0.10391	0.014496	0.00061	0.010071	0.066833	0.005188	0.24521	-0.030365	0.061646	0.007477	0.063629	-0.11215	0.036926	0.004578	-0.026245	-0.009003	0.040894	0.007019	-0.093079	0.020447	-0.062866	-0.085144	0.019379	0.021057	0.14664	0.093079	-0.067596	0.61798	-0.008087	0.00061
36.065	0.011902	0.011597	-0.10864	0.011444	-0.001678	-0.003357	0.054321	-0.001373	0.24475	-0.051575	-0.046387	-0.002289	0.073395	-0.065155	-0.080261	-0.008545	0.018311	-0.041351	-0.22339	-0.021973	-0.028381	-0.021667	0.0737	-0.12528	-0.009003	0.014038	-0.11444	0.015717	-0.097656	0.35385	-0.00351	0.002899
36.066	0.009766	0.043488	-0.086212	-0.001678	-0.009766	-0.020447	0.065765	0.003357	0.25864	-0.055389	-0.047455	0.007324	0.06958	-0.040131	-0.095062	-0.005646	0.019379	-0.028229	0.024872	-0.038757	0.022736	-0.043335	-0.02182	-0.013428	0.027008	0.042725	-0.35294	-0.032654	-0.19043	0.095978	-0.002594	0.003662
36.067	0.00824	0.037537	-0.075073	0.004425	-0.010071	-0.024719	0.052795	0.007629	0.24185	-0.056305	-0.055084	-0.00061	0.080261	-0.018311	0.044861	-0.015869	0.025177	-0.035553	0.033569	-0.057068	0.054932	-0.064697	-0.07843	0.049744	0.005646	0.021362	-0.45075	-0.019226	-0.28534	-0.030975	-0.006561	0.000916
36.068	0.003357	0.036163	-0.059052	-0.016785	-0.000153	-0.006409	0.051422	0.005035	0.24811	-0.039978	-0.025482	0.007782	0.077667	-0.009918	0.14893	0.00351	0.041199	-0.051422	0.099487	-0.032806	-0.059052	-0.004578	-0.087433	-0.046692	0.030823	0.011292	-0.11536	0.002289	-0.26642	-0.20157	-0.006256	-0.000916
36.069	0.006561	0.052338	-0.064697	-0.000916	0.001221	-0.022888	0.040283	0.000153	0.24338	-0.016022	-0.014038	-0.005798	0.098724	0.017395	0.092316	-0.006714	0.016785	-0.039215	0.045624	-0.051117	-0.090942	-0.038605	0.038605	-0.091248	0.055695	0.015717	0.66589	0.010834	-0.14282	-0.37125	-0.002289	-0.004578
36.07	-0.001984	0.056458	-0.046844	0.001373	0.005798	-0.02594	0.052185	0.001678	0.23483	-0.019684	-0.014343	-0.009003	0.088501	0.083313	-0.16663	-0.006866	-0.004883	0.007324	-0.05661	-0.001831	-0.29678	0.014038	0.12253	0.075684	0.053406	0.011292	1.0715	-0.000153	-0.13657	-0.51056	-0.004578	-0.004883
36.071	0.005341	0.06134	-0.062561	0.003357	0.001678	-0.027771	0.042725	-0.002136	0.22919	-0.020905	0.003052	0.002747	0.058289	0.077667	-0.159	-0.003815	-0.000305	-0.054321	0.064087	0.07309	-0.42923	0.11185	0.12039	-0.094604	-0.012054	0.013428	0.58166	-0.006256	-0.064392	-0.58548	-0.002441	0.004425
36.072	0.008698	0.093994	-0.093079	0.014954	0.002594	-0.017242	0.035095	0.005035	0.23453	-0.030365	-0.010071	0.000763	0.033569	0.12207	-0.13001	-0.009918	0.010529	-0.055389	0.005493	0.054169	-0.21683	0.13306	-0.053864	-0.075531	-0.016327	0.010529	-0.015411	-0.003052	0.14053	-0.49469	0.001526	0.000305
36.073	0.004578	0.072327	-0.10849	0.005646	0.014038	-0.008087	0.04837	0.001831	0.21744	-0.027618	-0.024872	0.006866	0.059357	0.12726	-0.049133	0.003662	-0.018463	-0.014648	0.096741	-0.000305	0.21561	0.30838	-0.34531	-0.051575	-0.043793	0.010376	-0.54718	-0.000153	0.13382	-0.41779	0.000153	-0.002441
36.074	0.003967	0.083923	-0.079041	0.004272	0.007324	0.007477	0.065613	0.005035	0.21011	-0.016174	-0.005035	0.013123	0.025635	0.012054	-0.063629	-0.009613	-0.016785	-0.044556	0.25284	-0.023651	0.092316	0.27679	-0.18677	-0.010681	-0.095825	0.005035	-0.7901	-0.00885	0.011444	-0.29343	0.000305	-0.018616
36.075	0.018768	0.09903	-0.042114	0.001831	0.003204	0.020142	0.047302	0.001526	0.21164	-0.033417	-0.002136	0.004425	0.032654	-0.049286	-0.024414	-0.010376	0.011139	-0.029449	0.070953	0.016327	-0.22308	0.068207	-0.13153	0.004578	-0.11169	0.000458	-1.0249	-0.010071	-0.01358	-0.068512	-0.001678	-0.014038
